<svg xmlns="http://www.w3.org/2000/svg" xmlns:svg="http://www.w3.org/2000/svg" xmlns:xlink="http://www.w3.org/1999/xlink" id="svg3742" x="0" y="0" version="1.1" viewBox="0 0 140 140" xml:space="preserve" style="enable-background:new 0 0 140 140"><style type="text/css">.st0{fill:#fff}.st1{fill:#263238}.st2{fill:#1976d2}.st3{fill:#42a5f5}</style><g id="g4636-5-7-7" transform="translate(14.241949,-1.4302574e-5)"><g id="g4768-9-1-2" transform="translate(-29.798982,0)"><g id="g5443-0-1-3-9-3" transform="matrix(0.55595317,0,0,0.55595317,-1486.6013,-286.79579)"><g id="g8856-6-1-1-9-9-3-3" transform="matrix(0.09527033,0,0,0.09527033,-1695.2716,706.62921)"><circle id="circle8858-1-3-7-6-9-7-2" cx="47504" cy="-678.9" r="1257.7" class="st0"/><path id="path8860-5-4-8-2-7-1-8" d="M47709.9-678.9c0,113.6-92.1,205.8-205.8,205.8l0,0c-113.6,0-205.8-92.1-205.8-205.8c0,0,0,0,0,0 c0-113.6,92.1-205.8,205.8-205.8C47617.7-884.7,47709.9-792.6,47709.9-678.9z" class="st1"/><path id="path8862-5-5-9-1-9-2-7" d="M48417.4-1206.3c-44.7-77-99-148-161.6-211.3l-237.9,137.3c-74.1-63.3-158.4-111.8-248.3-143.9 c-81.2,82.3-145.7,174.3-192.2,274.3c264.8-18,538.2,77.8,792.1,276.2l149.7-86.4C48495.8-1046.2,48461.6-1128.9,48417.4-1206.3 L48417.4-1206.3z" class="st2"/><path id="path8864-4-8-1-2-7-3-1" d="M48417.5-151.6c44.3-77.2,78.6-159.8,102.2-245.6l-237.9-137.3c17.8-95.9,17.7-193.1,0.5-287c-111.9-29.2-223.8-39.1-333.6-29.3 c148,220.3,201.7,505,156.9,824.1l149.7,86.4C48318-3.7,48372.6-74.7,48417.5-151.6L48417.5-151.6z" class="st3"/><path id="path8866-7-5-5-0-3-5-6" d="M47504.2,375.8c89-0.3,177.7-11.8,263.8-34.3V66.8c91.9-32.5,176.1-81.3,248.8-143.1c-30.7-111.5-78.1-213.3-141.4-303.6 c-116.8,238.3-336.5,427.2-635.2,547.9v172.9C47326.3,363.6,47415,375.3,47504.2,375.8z" class="st2"/><path id="path8868-6-7-4-7-5-7-1" d="M46590.7-151.5c44.7,77,99,148,161.6,211.3l237.9-137.3c74.1,63.3,158.4,111.8,248.3,143.9c81.2-82.3,145.7-174.3,192.2-274.3 c-264.8,18-538.2-77.8-792.1-276.2l-149.7,86.4C46512.4-311.6,46546.6-228.9,46590.7-151.5L46590.7-151.5z" class="st3"/><path id="path8870-5-3-9-3-0-0-9" d="M46590.7-1206.2c-44.3,77.2-78.6,159.8-102.2,245.6l237.9,137.3c-17.8,95.9-17.7,193.1-0.5,287 c111.9,29.2,223.8,39.1,333.6,29.3c-148-220.3-201.7-505-156.9-824.1l-149.7-86.4C46690.1-1354.1,46635.6-1283.2,46590.7-1206.2 z" class="st2"/><path id="path8872-6-3-2-1-4-2-1" d="M47504-1733.6c-89,0.3-177.7,11.8-263.8,34.3v274.7c-91.9,32.5-176.1,81.3-248.8,143.1c30.7,111.5,78.1,213.3,141.4,303.6 c116.8-238.3,336.5-427.2,635.2-547.9v-172.9C47681.9-1721.4,47593.2-1733.2,47504-1733.6L47504-1733.6z" class="st3"/></g></g></g></g></svg>