<svg xmlns="http://www.w3.org/2000/svg" xmlns:svg="http://www.w3.org/2000/svg" id="svg3808" width="40" height="40" version="1.1" viewBox="0 0 200 200"><metadata id="metadata3805"/><g id="layer1" transform="translate(0,-97)"><path style="fill:#0064e7;fill-opacity:1;stroke:#000;stroke-width:.26458332px;stroke-linecap:butt;stroke-linejoin:miter;stroke-opacity:0" id="path32" d="m 165.37035,132.44379 c -0.73874,0.007 -1.16117,0.0403 -1.16117,0.0403 H 8.1236075 v 20.84679 H 154.58754 c 0,0 8.88545,-0.2872 8.76122,14.37897 -0.077,16.31981 -6.97629,16.09063 -8.76122,16.08997 H 8.3912975 v 21.38112 H 154.58754 c 0,0 9.37305,-1.13832 9.29607,15.1815 -0.077,16.31981 -6.9768,16.09012 -8.76173,16.08946 H 8.3912975 l -0.26769,20.84679 H 157.52741 c 0,0 33.69854,1.72921 33.91628,-31.80168 0.21773,-33.53089 -2.61267,-29.61175 -9.14466,-33.31321 8.49159,-3.266 8.9271,-8.70935 8.9271,-35.27278 0,-23.24302 -20.68464,-24.51297 -25.85578,-24.46724 z"/></g></svg>